<?xml version="1.0" standalone="no"?>
<!DOCTYPE svg PUBLIC "-//W3C//DTD SVG 20010904//EN"
 "http://www.w3.org/TR/2001/REC-SVG-20010904/DTD/svg10.dtd">
<svg version="1.0" xmlns="http://www.w3.org/2000/svg"
 width="512.000000pt" height="512.000000pt" viewBox="0 0 512.000000 512.000000"
 preserveAspectRatio="xMidYMid meet">

<g transform="translate(0.000000,512.000000) scale(0.100000,-0.100000)"
fill="#fff" stroke="none">
<path d="M2495 5106 c-52 -24 -74 -54 -151 -209 -42 -84 -77 -153 -78 -154 -1
-2 -80 -14 -175 -28 -95 -14 -189 -32 -208 -42 -39 -18 -78 -71 -88 -120 -14
-70 7 -105 149 -244 l133 -129 -28 -163 c-16 -89 -29 -174 -29 -188 0 -47 42
-111 90 -136 72 -38 100 -32 285 60 l165 83 165 -83 c185 -92 213 -98 285 -60
48 25 90 89 90 136 0 14 -13 99 -29 188 l-28 163 133 128 c110 107 134 136
144 171 20 76 -17 163 -83 194 -19 10 -113 28 -208 42 -95 14 -173 26 -175 28
-1 1 -38 75 -83 164 -68 134 -88 165 -118 184 -44 27 -117 34 -158 15z m150
-327 c44 -88 89 -169 101 -179 16 -16 60 -25 209 -45 104 -15 191 -27 192 -29
2 -2 -60 -64 -137 -139 -165 -160 -156 -129 -111 -384 l28 -163 -174 90 c-96
50 -183 90 -192 90 -10 0 -98 -41 -195 -91 -176 -90 -178 -91 -172 -63 21 96
56 315 56 346 0 33 -10 45 -112 146 -62 60 -126 121 -143 135 -16 14 -28 27
-25 30 3 2 87 15 188 29 114 16 192 32 207 42 16 11 55 76 108 181 45 91 84
165 87 165 3 0 41 -72 85 -161z"/>
<path d="M955 4508 c-49 -27 -82 -73 -152 -213 -41 -82 -76 -151 -77 -152 0
-1 -81 -13 -180 -27 -200 -29 -234 -43 -266 -107 -22 -42 -26 -102 -10 -146 6
-15 69 -84 141 -153 l131 -125 -31 -175 c-33 -190 -32 -220 11 -275 26 -33 91
-64 136 -65 21 0 89 29 199 85 l166 84 171 -85 c159 -80 174 -86 216 -80 90
12 150 79 150 166 0 24 -12 110 -27 194 l-26 151 125 120 c132 126 158 162
158 219 0 61 -39 128 -92 157 -14 7 -336 59 -368 59 -5 0 -45 71 -88 158 -82
160 -105 192 -155 211 -36 14 -106 14 -132 -1z m260 -512 c11 -8 93 -23 190
-36 93 -12 179 -25 190 -28 18 -6 2 -25 -111 -132 -72 -69 -137 -137 -144
-153 -11 -23 -8 -54 18 -209 18 -100 30 -184 27 -186 -2 -2 -79 35 -170 82
-92 47 -178 86 -191 86 -13 0 -99 -39 -190 -86 -91 -48 -168 -84 -171 -81 -3
3 9 87 26 187 18 100 29 190 26 200 -3 11 -69 79 -146 152 -76 72 -138 133
-136 134 1 1 85 14 187 29 102 14 195 33 207 40 11 8 61 91 109 185 l88 170
86 -170 c48 -94 95 -176 105 -184z"/>
<path d="M4030 4509 c-47 -19 -72 -54 -151 -211 -44 -87 -83 -158 -88 -158
-33 0 -355 -52 -369 -59 -53 -29 -92 -96 -92 -157 0 -57 26 -93 158 -219 l125
-120 -26 -151 c-15 -84 -27 -170 -27 -194 0 -87 60 -154 150 -166 42 -5 58 1
217 80 l173 85 164 -84 c91 -47 175 -85 188 -85 80 0 157 55 177 125 9 33 6
69 -20 215 l-31 175 131 125 c72 69 136 138 141 153 15 42 12 105 -7 144 -30
65 -70 81 -270 110 l-180 26 -73 147 c-81 162 -92 179 -141 209 -37 23 -106
27 -149 10z m155 -329 c49 -98 94 -176 107 -184 13 -8 94 -24 183 -36 88 -11
173 -23 188 -26 28 -6 25 -10 -112 -141 -78 -74 -144 -145 -147 -157 -3 -12 9
-102 26 -200 17 -98 29 -180 26 -183 -3 -3 -80 34 -172 82 -136 71 -172 86
-198 82 -17 -3 -104 -44 -193 -90 -90 -46 -163 -80 -163 -75 0 6 14 89 31 185
17 97 28 186 25 199 -3 12 -70 83 -148 158 -78 75 -137 136 -131 136 7 0 92
11 190 25 123 17 186 31 203 43 15 11 59 86 110 185 47 92 86 167 87 167 2 0
41 -76 88 -170z"/>
<path d="M1985 3226 c-108 -35 -195 -110 -242 -211 -27 -58 -28 -65 -31 -257
l-3 -197 -302 -3 -302 -3 -58 -29 c-70 -36 -130 -99 -165 -174 l-27 -57 -3
-380 c-4 -421 1 -473 51 -569 l32 -61 5 -515 5 -515 27 -57 c32 -70 96 -133
168 -167 l55 -26 1365 0 1365 0 57 27 c70 32 133 96 167 168 l26 55 5 515 5
515 32 61 c50 96 55 148 51 569 l-3 380 -27 57 c-35 75 -95 138 -165 174 l-58
29 -302 3 -302 3 -3 197 -3 197 -31 65 c-40 83 -102 145 -184 184 l-65 31
-550 2 c-425 2 -559 -1 -590 -11z m1130 -175 c22 -10 52 -31 67 -47 51 -55 58
-88 58 -274 l0 -170 -680 0 -680 0 0 170 c0 186 7 219 58 274 15 16 45 37 67
47 37 17 75 19 555 19 480 0 518 -2 555 -19z m881 -680 c49 -22 80 -60 95
-113 7 -26 9 -169 7 -411 -3 -404 -3 -404 -63 -475 -15 -18 -48 -45 -74 -60
l-46 -27 -421 -3 -421 -3 -5 84 c-5 96 -33 157 -93 203 -67 51 -87 53 -415 53
-328 0 -348 -2 -415 -53 -60 -46 -88 -107 -93 -203 l-5 -84 -421 3 -421 3 -46
27 c-26 15 -59 42 -74 60 -60 71 -60 71 -63 475 -2 242 0 385 7 411 15 53 46
91 95 113 39 18 99 19 1436 19 1337 0 1397 -1 1436 -19z m-1122 -947 c22 -23
26 -35 26 -85 l0 -59 -340 0 -340 0 0 60 c0 53 3 64 26 85 l27 25 287 0 287 0
27 -26z m-1697 -299 c46 -12 135 -15 464 -15 l406 0 5 -83 c5 -96 33 -157 93
-203 67 -51 87 -53 415 -53 328 0 348 2 415 53 60 46 88 107 93 203 l5 83 406
0 c329 0 418 3 464 15 32 8 60 15 62 15 11 0 5 -830 -6 -857 -14 -38 -57 -83
-96 -99 -48 -21 -2638 -21 -2686 0 -39 16 -82 61 -96 99 -11 27 -17 857 -6
857 2 0 30 -7 62 -15z m1723 -75 c0 -51 -4 -65 -25 -85 l-24 -25 -291 0 -291
0 -24 25 c-21 20 -25 34 -25 85 l0 60 340 0 340 0 0 -60z"/>
</g>
</svg>
