<?xml version="1.0" standalone="no"?>
<!DOCTYPE svg PUBLIC "-//W3C//DTD SVG 20010904//EN"
 "http://www.w3.org/TR/2001/REC-SVG-20010904/DTD/svg10.dtd">
<svg version="1.0" xmlns="http://www.w3.org/2000/svg"
 width="512.000000pt" height="512.000000pt" viewBox="0 0 512.000000 512.000000"
 preserveAspectRatio="xMidYMid meet">

<g transform="translate(0.000000,512.000000) scale(0.100000,-0.100000)"
fill="#fff" stroke="none">
<path d="M3294 4870 c-37 -15 -83 -70 -95 -113 -6 -23 -17 -69 -23 -102 -13
-59 -13 -60 -77 -97 -35 -21 -71 -38 -79 -38 -8 0 -51 11 -95 25 -96 30 -126
31 -182 5 -30 -13 -52 -34 -76 -72 -119 -187 -116 -255 17 -372 l66 -58 0 -84
0 -84 -1102 0 -1103 0 -50 -24 c-62 -29 -107 -76 -137 -141 l-23 -50 4 -1360
c2 -748 7 -1370 12 -1383 5 -13 9 -28 9 -33 0 -5 -62 -9 -145 -9 l-145 0 -32
-29 -33 -29 0 -169 c0 -193 9 -224 86 -308 54 -59 119 -92 206 -105 46 -7 639
-10 1821 -8 l1754 3 19 24 c24 29 24 72 2 100 l-18 21 -1790 3 c-1912 2 -1819
0 -1874 50 -45 41 -61 93 -61 200 l0 97 934 0 934 0 11 -62 c12 -72 47 -121
107 -152 37 -20 54 -21 424 -21 370 0 387 1 424 21 60 31 95 80 107 152 l11
62 934 0 934 0 0 -97 c0 -107 -16 -159 -61 -200 -49 -45 -67 -47 -437 -53
-335 -5 -354 -6 -368 -24 -30 -42 -12 -98 37 -115 41 -14 600 -15 688 -1 83
14 147 47 200 105 77 84 86 115 86 308 l0 169 -33 29 -32 29 -146 0 -146 0 6
22 c14 47 23 146 20 218 -2 41 -3 499 -4 1017 l0 942 -22 21 c-42 39 -101 19
-118 -41 -6 -21 -10 -435 -10 -1067 l0 -1034 -34 -34 -34 -34 -2002 0 -2002 0
-34 34 -34 34 0 1352 0 1352 34 34 34 34 1021 0 1022 0 -12 -21 c-6 -12 -9
-45 -7 -75 l5 -54 -957 0 -957 0 -19 -21 c-18 -21 -19 -46 -16 -843 l3 -821
25 -22 c32 -29 56 -29 91 1 l28 24 3 766 2 766 610 0 c575 0 610 -1 609 -17 0
-10 -6 -40 -12 -68 -11 -46 -17 -52 -72 -87 -33 -20 -69 -37 -80 -37 -11 -1
-55 10 -98 24 -153 49 -205 26 -295 -130 -77 -134 -67 -189 53 -304 l75 -71 0
-74 0 -74 -80 -78 c-119 -116 -126 -163 -44 -305 91 -158 151 -176 351 -105
41 14 41 14 109 -27 l68 -42 23 -95 c25 -103 42 -133 93 -168 30 -20 45 -22
155 -22 110 0 125 2 156 23 50 33 76 79 94 165 9 42 18 82 20 89 2 6 36 29 75
51 l72 39 71 -24 c109 -36 148 -39 199 -14 51 24 73 51 128 156 66 125 52 188
-65 290 l-65 57 0 84 0 83 65 57 c122 108 132 171 52 314 -57 101 -93 135
-155 146 -34 7 -52 3 -198 -38 -39 -11 -44 -9 -110 28 l-68 40 -13 59 c-7 33
-12 63 -13 68 0 4 38 7 85 7 78 0 88 -2 128 -31 63 -44 105 -46 214 -11 l92
29 71 -39 c39 -22 72 -45 74 -51 2 -7 13 -52 25 -102 22 -93 47 -132 103 -161
32 -17 232 -20 274 -4 15 6 42 26 60 46 27 28 37 52 55 132 l22 98 69 41 70
40 91 -28 c50 -16 102 -29 117 -29 31 0 100 31 119 53 10 13 31 17 87 17 l74
0 0 -1120 0 -1120 -1769 0 -1770 0 -3 221 -3 221 -28 24 c-34 29 -56 30 -91 3
l-26 -20 0 -283 c0 -261 1 -284 18 -299 17 -16 164 -17 1904 -17 1819 0 1885
1 1902 18 15 17 16 114 16 1252 0 1132 -1 1235 -17 1252 -13 15 -32 18 -99 18
l-82 0 1 53 c1 28 -2 62 -6 75 l-8 22 146 0 147 0 34 -34 34 -34 0 -145 c0
-150 9 -201 40 -217 30 -16 68 -12 90 10 18 18 20 33 20 193 0 192 -10 229
-73 295 -69 73 -85 76 -352 82 l-240 5 -3 77 -3 77 75 72 c122 116 131 170 50
310 -46 80 -80 118 -121 135 -46 20 -81 17 -170 -11 -43 -14 -87 -25 -98 -24
-11 0 -47 17 -80 37 l-60 37 -25 102 c-27 106 -48 141 -102 169 -30 16 -247
19 -284 4z m230 -157 c2 -10 12 -53 21 -96 9 -42 27 -91 39 -109 24 -36 189
-133 239 -141 19 -3 69 7 126 24 51 16 97 29 102 29 4 0 27 -32 50 -71 l43
-72 -81 -76 c-93 -87 -103 -110 -103 -236 0 -126 10 -149 102 -236 l81 -76
-42 -71 c-23 -40 -45 -72 -49 -72 -4 0 -50 14 -102 31 -85 27 -99 29 -140 19
-25 -7 -83 -35 -130 -63 -98 -60 -117 -89 -145 -220 l-17 -78 -86 3 -87 3 -20
90 c-25 105 -34 124 -75 158 -40 34 -168 103 -205 111 -21 5 -63 -3 -129 -24
-54 -16 -102 -28 -106 -25 -14 9 -80 121 -80 136 0 8 32 43 71 78 40 36 78 79
85 97 9 21 14 72 14 141 0 133 -14 166 -105 243 -35 30 -65 61 -65 68 0 20 73
142 85 142 6 0 45 -12 86 -26 111 -38 154 -35 252 22 132 75 144 90 172 219 9
44 19 83 22 88 2 4 42 7 88 7 71 0 84 -3 89 -17z m-1166 -1348 c34 -156 49
-176 178 -250 98 -56 137 -59 255 -20 l83 28 20 -26 c12 -14 32 -47 46 -73
l25 -46 -71 -67 c-98 -92 -104 -106 -104 -247 0 -140 9 -161 106 -244 35 -30
64 -60 64 -67 0 -14 -66 -130 -79 -137 -5 -3 -53 8 -107 24 -66 21 -108 29
-129 24 -42 -9 -172 -81 -216 -121 -37 -33 -42 -45 -71 -178 l-14 -60 -86 -3
-87 -3 -10 38 c-5 21 -15 64 -21 95 -16 82 -43 114 -140 170 -129 73 -144 76
-262 38 -54 -17 -103 -28 -107 -25 -5 3 -26 35 -47 72 l-37 66 81 77 c47 45
84 89 89 106 10 38 10 220 0 259 -5 18 -40 60 -89 106 l-81 76 38 67 c21 37
43 70 49 72 7 3 48 -7 91 -22 117 -38 149 -35 263 28 112 62 135 91 157 198
25 121 15 111 113 108 l86 -3 14 -60z m582 -2670 c0 -29 -5 -37 -26 -45 -14
-6 -165 -10 -354 -10 -189 0 -340 4 -354 10 -21 8 -26 16 -26 45 l0 35 380 0
380 0 0 -35z"/>
<path d="M3313 4356 c-147 -48 -256 -175 -283 -328 -30 -169 67 -352 229 -431
62 -30 73 -32 171 -32 97 0 110 2 172 32 93 44 151 100 196 191 35 73 37 80
37 177 0 97 -2 104 -38 177 -43 89 -108 152 -195 194 -47 23 -73 28 -152 31
-61 2 -110 -2 -137 -11z m214 -151 c116 -49 182 -168 159 -289 l-7 -36 -244 0
c-175 0 -246 3 -251 12 -14 22 -9 123 9 170 21 55 97 129 149 145 50 16 144
15 185 -2z m-12 -485 c-11 -5 -47 -9 -80 -9 -33 0 -69 4 -80 9 -13 6 15 9 80
9 65 0 93 -3 80 -9z"/>
<path d="M2123 3051 c-309 -114 -370 -515 -108 -713 114 -86 285 -103 416 -40
120 57 211 181 229 310 24 173 -69 346 -228 424 -58 29 -77 33 -161 35 -76 3
-107 -1 -148 -16z m219 -143 c52 -15 121 -78 148 -134 27 -54 30 -151 7 -205
-56 -136 -224 -198 -355 -133 -91 45 -142 127 -142 229 0 177 167 296 342 243z"/>
</g>
</svg>
