<?xml version="1.0" standalone="no"?>
<!DOCTYPE svg PUBLIC "-//W3C//DTD SVG 20010904//EN"
 "http://www.w3.org/TR/2001/REC-SVG-20010904/DTD/svg10.dtd">
<svg version="1.0" xmlns="http://www.w3.org/2000/svg"
 width="512.000000pt" height="512.000000pt" viewBox="0 0 512.000000 512.000000"
 preserveAspectRatio="xMidYMid meet">

<g transform="translate(0.000000,512.000000) scale(0.100000,-0.100000)"
fill="#fff" stroke="none">
<path d="M2326 5109 c-133 -14 -179 -38 -218 -112 -19 -36 -23 -62 -26 -188
l-4 -146 -72 -18 c-165 -42 -352 -118 -509 -208 l-88 -50 -98 96 c-54 53 -114
104 -134 112 -48 20 -120 19 -160 -1 -105 -54 -437 -386 -491 -491 -20 -40
-21 -112 -1 -160 8 -20 59 -80 112 -134 l96 -98 -50 -88 c-90 -157 -166 -344
-208 -509 l-18 -72 -146 -4 c-154 -4 -199 -16 -243 -65 -45 -49 -68 -189 -68
-413 0 -224 23 -364 68 -413 44 -49 89 -61 243 -65 l146 -4 18 -72 c42 -165
118 -352 208 -509 l50 -88 -96 -98 c-53 -54 -104 -114 -112 -134 -20 -48 -19
-120 1 -160 54 -105 386 -437 491 -491 40 -20 112 -21 160 -1 20 8 80 59 134
111 l98 96 78 -45 c152 -87 356 -170 519 -212 l72 -18 4 -146 c4 -154 16 -199
65 -243 49 -45 189 -68 413 -68 224 0 364 23 413 68 49 44 61 89 65 243 l4
146 72 18 c165 42 352 118 509 208 l88 50 98 -96 c54 -53 114 -104 134 -112
48 -20 120 -19 160 1 105 54 437 386 491 491 20 40 21 112 1 160 -8 20 -59 80
-112 134 l-96 98 50 88 c90 157 166 344 208 509 l18 72 146 4 c154 4 199 16
243 65 45 49 68 189 68 413 0 224 -23 364 -68 413 -44 49 -89 61 -243 65
l-146 4 -18 72 c-42 165 -118 352 -208 509 l-50 88 96 98 c53 54 104 114 112
134 20 48 19 120 -1 160 -54 105 -386 437 -491 491 -40 20 -112 21 -160 1 -20
-8 -80 -59 -134 -111 l-98 -96 -78 45 c-152 87 -356 170 -519 212 l-72 18 -4
146 c-3 124 -7 152 -25 186 -41 78 -85 99 -232 114 -118 12 -339 12 -455 0z
m515 -159 c24 -7 39 -18 43 -33 3 -12 6 -94 6 -183 0 -145 2 -163 19 -178 10
-9 77 -32 147 -50 205 -53 394 -134 567 -241 107 -67 109 -67 252 75 84 82
129 120 144 120 60 0 441 -380 441 -440 0 -16 -37 -60 -120 -145 -142 -143
-142 -145 -75 -252 107 -173 188 -362 241 -567 18 -70 41 -137 50 -147 15 -17
33 -19 178 -19 89 0 171 -3 183 -6 39 -11 47 -66 47 -324 0 -258 -8 -313 -47
-324 -12 -3 -94 -6 -183 -6 -145 0 -163 -2 -178 -19 -9 -10 -32 -77 -50 -147
-53 -205 -134 -394 -241 -567 -67 -107 -67 -109 75 -252 83 -85 120 -129 120
-145 0 -60 -381 -440 -441 -440 -15 0 -60 38 -144 120 -143 142 -145 142 -252
75 -173 -107 -362 -188 -567 -241 -70 -18 -137 -41 -147 -50 -17 -15 -19 -33
-19 -178 0 -89 -3 -171 -6 -183 -11 -39 -66 -47 -324 -47 -258 0 -313 8 -324
47 -3 12 -6 94 -6 183 0 145 -2 163 -19 178 -10 9 -77 32 -147 50 -205 53
-394 134 -567 241 -107 67 -109 67 -252 -75 -85 -83 -129 -120 -145 -120 -60
0 -440 381 -440 441 0 15 38 60 120 144 142 143 142 145 75 252 -107 173 -188
362 -241 567 -18 70 -41 137 -50 147 -15 17 -33 19 -178 19 -89 0 -171 3 -183
6 -39 11 -47 66 -47 324 0 258 8 313 47 324 12 3 94 6 183 6 145 0 163 2 178
19 9 10 32 77 50 147 53 205 134 394 241 567 67 107 67 109 -75 252 -82 84
-120 129 -120 144 0 60 380 441 440 441 16 0 60 -37 145 -120 143 -142 145
-142 252 -75 173 107 362 188 567 241 70 18 137 41 147 50 17 15 19 33 19 178
0 182 4 203 34 212 72 24 500 27 577 4z"/>
<path d="M2440 4154 c-429 -52 -717 -184 -993 -453 -316 -307 -480 -697 -480
-1141 0 -367 114 -703 332 -978 35 -44 46 -52 76 -52 24 0 39 7 54 26 31 39
26 65 -25 135 -140 189 -228 394 -271 626 -23 122 -22 369 1 488 35 182 99
357 176 484 260 428 665 676 1168 716 l82 7 0 -193 0 -192 -133 -134 -134
-133 -115 0 -116 0 -25 43 c-106 180 -381 132 -427 -75 -40 -181 156 -336 325
-259 43 19 109 85 120 120 6 20 13 21 129 21 110 0 127 2 172 25 62 31 311
281 339 340 16 34 20 70 23 233 2 105 6 192 7 192 10 0 177 -33 208 -41 l37
-10 0 -277 c0 -259 1 -279 20 -310 11 -18 34 -41 52 -52 31 -19 51 -20 400
-20 l366 0 31 -54 c30 -53 81 -172 81 -188 0 -4 -219 -8 -487 -8 l-488 0 -23
40 c-115 201 -433 115 -432 -116 1 -235 301 -324 426 -128 l35 54 509 0 510 0
5 -22 c14 -66 25 -146 25 -184 l0 -43 -432 -3 c-390 -3 -437 -5 -473 -21 -22
-10 -96 -74 -175 -152 -74 -73 -148 -139 -163 -144 -16 -6 -88 -11 -161 -11
l-134 0 -12 29 c-47 114 -200 164 -318 105 -194 -97 -152 -393 61 -433 95 -17
197 26 242 103 l26 44 162 4 c124 3 171 9 202 22 25 10 94 70 181 156 l141
140 428 0 428 0 -6 -72 c-3 -40 -11 -97 -17 -125 l-12 -53 -336 0 c-317 0
-340 -2 -382 -21 -32 -14 -114 -89 -288 -262 -134 -133 -258 -262 -275 -287
l-32 -45 -5 -250 -5 -250 -118 2 c-104 1 -225 14 -279 29 -16 5 -18 24 -18
222 0 197 -2 221 -21 262 -14 32 -84 109 -237 263 l-217 218 -3 153 -4 153 30
12 c76 32 132 121 132 211 0 134 -98 229 -236 230 -112 0 -201 -73 -224 -185
-20 -97 28 -204 113 -250 l35 -18 4 -161 c3 -125 8 -170 22 -201 11 -26 92
-116 237 -261 l219 -221 0 -186 c0 -116 -4 -187 -10 -187 -5 0 -50 17 -99 38
-91 40 -181 93 -286 169 -66 48 -90 52 -129 22 -36 -28 -36 -76 2 -111 91 -86
337 -221 497 -273 706 -229 1461 42 1858 667 251 395 311 896 162 1353 -51
156 -152 345 -254 473 -35 44 -46 52 -76 52 -38 0 -75 -37 -75 -75 0 -12 9
-34 21 -49 l20 -26 -295 0 -296 0 0 225 c0 124 3 225 8 225 21 0 199 -99 277
-155 50 -36 100 -65 111 -65 37 0 74 37 74 75 0 30 -8 41 -52 76 -199 158
-445 266 -713 313 -91 16 -320 28 -385 20z m-542 -817 c50 -47 11 -137 -61
-137 -34 0 -67 26 -80 62 -11 31 13 79 47 94 36 15 62 10 94 -19z m880 -320
c51 -47 14 -137 -57 -137 -95 0 -112 130 -21 163 22 8 52 -2 78 -26z m-1041
-319 c30 -28 31 -83 1 -115 -24 -26 -82 -31 -110 -9 -41 31 -41 103 -1 134 27
20 84 15 110 -10z m560 -400 c32 -30 31 -87 -1 -117 -76 -72 -187 39 -115 115
29 31 84 32 116 2z m1623 -227 c0 -5 -13 -40 -29 -77 -182 -427 -562 -744
-1008 -844 l-83 -18 0 221 0 221 253 253 253 253 307 0 c174 0 307 -4 307 -9z"/>
</g>
</svg>
